<svg xmlns="http://www.w3.org/2000/svg" viewBox="0 0 95.912 67.08">
  <defs>
    <style>
      .cls-1, .cls-2 {
        fill: none;
        stroke: #fff;
        stroke-linecap: round;
        stroke-width: 2px;
      }

      .cls-2 {
        stroke-linejoin: round;
      }
    </style>
  </defs>
  <g id="Sunrise" transform="translate(-572.483 -403.47)">
    <path id="Path_1" data-name="Path 1" class="cls-1" d="M572.483,457.55h95.912" transform="translate(0 12)"/>
    <path id="Path_2" data-name="Path 2" class="cls-2" d="M596.353,452.459h49.123s-2.153-23.416-24.738-23.165S596.353,452.459,596.353,452.459Z" transform="translate(0 12)"/>
    <path id="Path_3" data-name="Path 3" class="cls-2" d="M593.88,447.627a19.258,19.258,0,0,1,1.278-5.187,15.438,15.438,0,0,1,2.81-4.127l-20.834-3.1Z" transform="translate(0 12)"/>
    <path id="Path_4" data-name="Path 4" class="cls-2" d="M593.88,447.627a19.258,19.258,0,0,1,1.278-5.187,15.438,15.438,0,0,1,2.81-4.127l-20.834-3.1Z" transform="matrix(0.719, 0.695, -0.695, 0.719, 489.537, -292.258)"/>
    <path id="Path_5" data-name="Path 5" class="cls-2" d="M593.88,447.627a19.258,19.258,0,0,1,1.278-5.187,15.438,15.438,0,0,1,2.81-4.127l-20.834-3.1Z" transform="translate(1053.195 -170.18) rotate(88)"/>
    <path id="Path_6" data-name="Path 6" class="cls-2" d="M593.88,447.627a19.258,19.258,0,0,1,1.278-5.187,15.438,15.438,0,0,1,2.81-4.127l-20.834-3.1Z" transform="translate(1381.834 359.801) rotate(136)"/>
    <path id="Path_7" data-name="Path 7" class="cls-1" d="M620.914,413.948V394.428" transform="translate(0 12)"/>
    <path id="Path_8" data-name="Path 8" class="cls-2" d="M616.033,401.851l4.9-8.384,4.8,8.384" transform="translate(0 12)"/>
  </g>
</svg>
